<mxfile host="app.diagrams.net" modified="2021-12-28T08:56:56.059Z" agent="5.0 (Macintosh; Intel Mac OS X 10_15_7) AppleWebKit/605.1.15 (KHTML, like Gecko) Version/15.0 Safari/605.1.15" etag="eT3rC_waSgWk-l9j5DY_" version="16.0.0" type="github">
  <diagram name="Page-1" id="929967ad-93f9-6ef4-fab6-5d389245f69c">
    <mxGraphModel dx="1426" dy="787" grid="1" gridSize="10" guides="1" tooltips="1" connect="1" arrows="1" fold="1" page="1" pageScale="1.5" pageWidth="1169" pageHeight="826" background="none" math="0" shadow="0">
      <root>
        <mxCell id="0" style=";html=1;" />
        <mxCell id="1" style=";html=1;" parent="0" />
        <mxCell id="xK1aNE3nsjxpxYb-MDJq-2" value="" style="rounded=0;whiteSpace=wrap;html=1;" vertex="1" parent="1">
          <mxGeometry x="460" y="30" width="1300" height="580" as="geometry" />
        </mxCell>
        <mxCell id="xK1aNE3nsjxpxYb-MDJq-1" value="" style="rounded=0;whiteSpace=wrap;html=1;" vertex="1" parent="1">
          <mxGeometry x="473.5" y="95" width="1016.5" height="485" as="geometry" />
        </mxCell>
        <mxCell id="1672d66443f91eb5-23" value="基于piepeline的多模态医疗图像归档架构" style="text;strokeColor=none;fillColor=none;html=1;fontSize=24;fontStyle=1;verticalAlign=middle;align=center;" parent="1" vertex="1">
          <mxGeometry x="460" y="40" width="1310" height="40" as="geometry" />
        </mxCell>
        <mxCell id="pV0WUz-UowrdmiYX6-GZ-2" value="后端任务管理模块&lt;br&gt;PFJobManager/&lt;br&gt;SystemManager" style="rounded=0;whiteSpace=wrap;html=1;" parent="1" vertex="1">
          <mxGeometry x="715" y="310" width="120" height="60" as="geometry" />
        </mxCell>
        <mxCell id="pV0WUz-UowrdmiYX6-GZ-1" value="前端界面任务管理模块JobManagerFE" style="rounded=0;whiteSpace=wrap;html=2;" parent="1" vertex="1">
          <mxGeometry x="550" y="170" width="140" height="60" as="geometry" />
        </mxCell>
        <mxCell id="pV0WUz-UowrdmiYX6-GZ-5" value="任务代理模块&lt;br&gt;JobDelegate" style="rounded=0;whiteSpace=wrap;html=1;" parent="1" vertex="1">
          <mxGeometry x="825" y="170" width="120" height="60" as="geometry" />
        </mxCell>
        <mxCell id="pV0WUz-UowrdmiYX6-GZ-11" style="edgeStyle=orthogonalEdgeStyle;rounded=0;orthogonalLoop=1;jettySize=auto;html=1;exitX=0;exitY=0.5;exitDx=0;exitDy=0;entryX=1;entryY=0.5;entryDx=0;entryDy=0;" parent="1" source="pV0WUz-UowrdmiYX6-GZ-8" target="pV0WUz-UowrdmiYX6-GZ-5" edge="1">
          <mxGeometry relative="1" as="geometry" />
        </mxCell>
        <mxCell id="pV0WUz-UowrdmiYX6-GZ-8" value="前端&lt;br&gt;PA/EXAM/APPs" style="rounded=0;whiteSpace=wrap;html=1;" parent="1" vertex="1">
          <mxGeometry x="1115" y="170" width="120" height="60" as="geometry" />
        </mxCell>
        <mxCell id="pV0WUz-UowrdmiYX6-GZ-12" value="传递命令参数" style="text;html=1;align=center;verticalAlign=middle;resizable=0;points=[];autosize=1;strokeColor=none;fillColor=none;" parent="1" vertex="1">
          <mxGeometry x="990" y="180" width="90" height="20" as="geometry" />
        </mxCell>
        <mxCell id="pV0WUz-UowrdmiYX6-GZ-13" value="后端归档服务使用进程&lt;br&gt;ArchivingBE" style="rounded=0;whiteSpace=wrap;html=1;" parent="1" vertex="1">
          <mxGeometry x="987" y="310" width="140" height="60" as="geometry" />
        </mxCell>
        <mxCell id="pV0WUz-UowrdmiYX6-GZ-17" value="C-Move-Rsp&lt;br&gt;&lt;br&gt;C-Store-Rq" style="text;html=1;align=center;verticalAlign=middle;resizable=0;points=[];autosize=1;strokeColor=none;fillColor=none;" parent="1" vertex="1">
          <mxGeometry x="1510" y="360" width="80" height="50" as="geometry" />
        </mxCell>
        <mxCell id="pV0WUz-UowrdmiYX6-GZ-19" value="C-Move-Rq&lt;br&gt;&lt;br&gt;C-Store-Rsp" style="text;html=1;align=center;verticalAlign=middle;resizable=0;points=[];autosize=1;strokeColor=none;fillColor=none;" parent="1" vertex="1">
          <mxGeometry x="1510" y="270" width="80" height="50" as="geometry" />
        </mxCell>
        <mxCell id="pV0WUz-UowrdmiYX6-GZ-22" value="创建归档任务命令" style="text;html=1;align=center;verticalAlign=middle;resizable=0;points=[];autosize=1;strokeColor=none;fillColor=none;" parent="1" vertex="1">
          <mxGeometry x="870" y="260" width="110" height="20" as="geometry" />
        </mxCell>
        <mxCell id="pV0WUz-UowrdmiYX6-GZ-25" value="封装的命令" style="text;html=1;align=center;verticalAlign=middle;resizable=0;points=[];autosize=1;strokeColor=none;fillColor=none;" parent="1" vertex="1">
          <mxGeometry x="875" y="310" width="80" height="20" as="geometry" />
        </mxCell>
        <mxCell id="pV0WUz-UowrdmiYX6-GZ-26" value="归档/导入&lt;br&gt;调度命令" style="text;html=1;align=center;verticalAlign=middle;resizable=0;points=[];autosize=1;strokeColor=none;fillColor=none;" parent="1" vertex="1">
          <mxGeometry x="572" y="255" width="70" height="30" as="geometry" />
        </mxCell>
        <mxCell id="pV0WUz-UowrdmiYX6-GZ-27" value="" style="endArrow=classic;html=1;rounded=0;exitX=0.25;exitY=1;exitDx=0;exitDy=0;entryX=0;entryY=0;entryDx=0;entryDy=0;" parent="1" source="pV0WUz-UowrdmiYX6-GZ-1" target="pV0WUz-UowrdmiYX6-GZ-2" edge="1">
          <mxGeometry width="50" height="50" relative="1" as="geometry">
            <mxPoint x="725" y="330" as="sourcePoint" />
            <mxPoint x="775" y="280" as="targetPoint" />
          </mxGeometry>
        </mxCell>
        <mxCell id="pV0WUz-UowrdmiYX6-GZ-28" value="" style="endArrow=classic;html=1;rounded=0;entryX=0.5;entryY=1;entryDx=0;entryDy=0;exitX=0.25;exitY=0;exitDx=0;exitDy=0;" parent="1" source="pV0WUz-UowrdmiYX6-GZ-2" target="pV0WUz-UowrdmiYX6-GZ-1" edge="1">
          <mxGeometry width="50" height="50" relative="1" as="geometry">
            <mxPoint x="725" y="330" as="sourcePoint" />
            <mxPoint x="775" y="280" as="targetPoint" />
          </mxGeometry>
        </mxCell>
        <mxCell id="pV0WUz-UowrdmiYX6-GZ-29" value="归档/导入&lt;br&gt;进程反馈" style="text;html=1;align=center;verticalAlign=middle;resizable=0;points=[];autosize=1;strokeColor=none;fillColor=none;" parent="1" vertex="1">
          <mxGeometry x="697" y="255" width="70" height="30" as="geometry" />
        </mxCell>
        <mxCell id="pV0WUz-UowrdmiYX6-GZ-30" value="" style="endArrow=classic;html=1;rounded=0;entryX=0;entryY=0.75;entryDx=0;entryDy=0;" parent="1" target="pV0WUz-UowrdmiYX6-GZ-228" edge="1">
          <mxGeometry width="50" height="50" relative="1" as="geometry">
            <mxPoint x="1390" y="355" as="sourcePoint" />
            <mxPoint x="1156" y="470" as="targetPoint" />
          </mxGeometry>
        </mxCell>
        <mxCell id="pV0WUz-UowrdmiYX6-GZ-39" value="创建、销毁、&lt;br&gt;启动、暂停、挂起" style="text;html=1;align=center;verticalAlign=middle;resizable=0;points=[];autosize=1;strokeColor=none;fillColor=none;" parent="1" vertex="1">
          <mxGeometry x="655" y="390" width="110" height="30" as="geometry" />
        </mxCell>
        <mxCell id="pV0WUz-UowrdmiYX6-GZ-48" value="" style="rounded=1;whiteSpace=wrap;html=1;" parent="1" vertex="1">
          <mxGeometry x="565" y="492" width="60" height="30" as="geometry" />
        </mxCell>
        <mxCell id="pV0WUz-UowrdmiYX6-GZ-49" value="" style="rounded=1;whiteSpace=wrap;html=1;" parent="1" vertex="1">
          <mxGeometry x="575" y="502" width="60" height="30" as="geometry" />
        </mxCell>
        <mxCell id="pV0WUz-UowrdmiYX6-GZ-51" value="" style="rounded=0;whiteSpace=wrap;html=1;fontFamily=Helvetica;fontSize=12;fontColor=default;strokeColor=default;fillColor=default;" parent="1" vertex="1">
          <mxGeometry x="505" y="440" width="610" height="110" as="geometry" />
        </mxCell>
        <mxCell id="pV0WUz-UowrdmiYX6-GZ-52" value="pipeline归档进程组" style="text;html=1;strokeColor=none;fillColor=none;align=center;verticalAlign=middle;whiteSpace=wrap;rounded=0;fontFamily=Helvetica;fontSize=12;fontColor=default;" parent="1" vertex="1">
          <mxGeometry x="505" y="442" width="120" height="30" as="geometry" />
        </mxCell>
        <mxCell id="pV0WUz-UowrdmiYX6-GZ-53" value="" style="rounded=1;whiteSpace=wrap;html=1;" parent="1" vertex="1">
          <mxGeometry x="565" y="492" width="150" height="30" as="geometry" />
        </mxCell>
        <mxCell id="pV0WUz-UowrdmiYX6-GZ-54" value="" style="rounded=1;whiteSpace=wrap;html=1;" parent="1" vertex="1">
          <mxGeometry x="575" y="502" width="150" height="30" as="geometry" />
        </mxCell>
        <mxCell id="pV0WUz-UowrdmiYX6-GZ-185" value="" style="edgeStyle=orthogonalEdgeStyle;rounded=0;orthogonalLoop=1;jettySize=auto;html=1;fontFamily=Helvetica;fontSize=12;fontColor=default;" parent="1" source="pV0WUz-UowrdmiYX6-GZ-55" target="pV0WUz-UowrdmiYX6-GZ-66" edge="1">
          <mxGeometry relative="1" as="geometry" />
        </mxCell>
        <mxCell id="pV0WUz-UowrdmiYX6-GZ-55" value="pipelineArchiveJob(USB)" style="rounded=1;whiteSpace=wrap;html=1;" parent="1" vertex="1">
          <mxGeometry x="585" y="514.5" width="150" height="27.5" as="geometry" />
        </mxCell>
        <mxCell id="pV0WUz-UowrdmiYX6-GZ-57" value="" style="rounded=1;whiteSpace=wrap;html=1;" parent="1" vertex="1">
          <mxGeometry x="935" y="492" width="60" height="30" as="geometry" />
        </mxCell>
        <mxCell id="pV0WUz-UowrdmiYX6-GZ-58" value="" style="rounded=1;whiteSpace=wrap;html=1;" parent="1" vertex="1">
          <mxGeometry x="945" y="502" width="60" height="30" as="geometry" />
        </mxCell>
        <mxCell id="pV0WUz-UowrdmiYX6-GZ-59" value="" style="rounded=1;whiteSpace=wrap;html=1;" parent="1" vertex="1">
          <mxGeometry x="935" y="492" width="150" height="30" as="geometry" />
        </mxCell>
        <mxCell id="pV0WUz-UowrdmiYX6-GZ-60" value="" style="rounded=1;whiteSpace=wrap;html=1;" parent="1" vertex="1">
          <mxGeometry x="945" y="502" width="150" height="30" as="geometry" />
        </mxCell>
        <mxCell id="pV0WUz-UowrdmiYX6-GZ-61" value="pipelineArchiveJob(DVD)" style="rounded=1;whiteSpace=wrap;html=1;" parent="1" vertex="1">
          <mxGeometry x="955" y="514.5" width="150" height="27.5" as="geometry" />
        </mxCell>
        <mxCell id="pV0WUz-UowrdmiYX6-GZ-62" value="" style="rounded=1;whiteSpace=wrap;html=1;" parent="1" vertex="1">
          <mxGeometry x="755" y="492" width="60" height="30" as="geometry" />
        </mxCell>
        <mxCell id="pV0WUz-UowrdmiYX6-GZ-63" value="" style="rounded=1;whiteSpace=wrap;html=1;" parent="1" vertex="1">
          <mxGeometry x="765" y="502" width="60" height="30" as="geometry" />
        </mxCell>
        <mxCell id="pV0WUz-UowrdmiYX6-GZ-64" value="" style="rounded=1;whiteSpace=wrap;html=1;" parent="1" vertex="1">
          <mxGeometry x="755" y="492" width="150" height="30" as="geometry" />
        </mxCell>
        <mxCell id="pV0WUz-UowrdmiYX6-GZ-65" value="" style="rounded=1;whiteSpace=wrap;html=1;" parent="1" vertex="1">
          <mxGeometry x="765" y="502" width="150" height="30" as="geometry" />
        </mxCell>
        <mxCell id="pV0WUz-UowrdmiYX6-GZ-66" value="pipelineArchiveJob(PACS)" style="rounded=1;whiteSpace=wrap;html=1;" parent="1" vertex="1">
          <mxGeometry x="775" y="514.5" width="150" height="27.5" as="geometry" />
        </mxCell>
        <mxCell id="pV0WUz-UowrdmiYX6-GZ-69" style="edgeStyle=orthogonalEdgeStyle;rounded=0;orthogonalLoop=1;jettySize=auto;html=1;exitX=0.5;exitY=1;exitDx=0;exitDy=0;fontFamily=Helvetica;fontSize=12;fontColor=default;" parent="1" source="pV0WUz-UowrdmiYX6-GZ-51" target="pV0WUz-UowrdmiYX6-GZ-51" edge="1">
          <mxGeometry relative="1" as="geometry" />
        </mxCell>
        <mxCell id="pV0WUz-UowrdmiYX6-GZ-70" value="&lt;span style=&quot;color: rgb(0 , 0 , 0) ; font-family: &amp;#34;helvetica&amp;#34; ; font-size: 12px ; font-style: normal ; font-weight: normal ; letter-spacing: normal ; text-align: center ; text-indent: 0px ; text-transform: none ; word-spacing: 0px ; background-color: rgb(248 , 249 , 250) ; text-decoration: none ; display: inline ; float: none&quot;&gt;out t&lt;/span&gt;" style="rounded=1;whiteSpace=wrap;html=1;" parent="1" vertex="1">
          <mxGeometry x="541" y="950" width="650" height="144" as="geometry" />
        </mxCell>
        <mxCell id="pV0WUz-UowrdmiYX6-GZ-71" value="pipelineArchiveJob(PACS)" style="text;html=1;strokeColor=none;fillColor=none;align=center;verticalAlign=middle;whiteSpace=wrap;rounded=0;fontFamily=Helvetica;fontSize=12;fontColor=default;" parent="1" vertex="1">
          <mxGeometry x="642" y="950" width="60" height="30" as="geometry" />
        </mxCell>
        <mxCell id="pV0WUz-UowrdmiYX6-GZ-73" value="Functor 1" style="rounded=1;whiteSpace=wrap;html=1;fontFamily=Helvetica;fontSize=12;fontColor=default;strokeColor=default;fillColor=default;" parent="1" vertex="1">
          <mxGeometry x="602" y="995" width="70" height="35" as="geometry" />
        </mxCell>
        <mxCell id="pV0WUz-UowrdmiYX6-GZ-74" value="Functor 1" style="rounded=1;whiteSpace=wrap;html=1;fontFamily=Helvetica;fontSize=12;fontColor=default;strokeColor=default;fillColor=default;" parent="1" vertex="1">
          <mxGeometry x="602" y="995" width="70" height="35" as="geometry" />
        </mxCell>
        <mxCell id="pV0WUz-UowrdmiYX6-GZ-75" value="Functor m" style="rounded=1;whiteSpace=wrap;html=1;fontFamily=Helvetica;fontSize=12;fontColor=default;strokeColor=default;fillColor=default;" parent="1" vertex="1">
          <mxGeometry x="952" y="953.75" width="70" height="35" as="geometry" />
        </mxCell>
        <mxCell id="pV0WUz-UowrdmiYX6-GZ-76" value="Functor 2" style="rounded=1;whiteSpace=wrap;html=1;fontFamily=Helvetica;fontSize=12;fontColor=default;strokeColor=default;fillColor=default;" parent="1" vertex="1">
          <mxGeometry x="782" y="995" width="70" height="35" as="geometry" />
        </mxCell>
        <mxCell id="pV0WUz-UowrdmiYX6-GZ-77" value="Functor &amp;nbsp;k" style="rounded=1;whiteSpace=wrap;html=1;fontFamily=Helvetica;fontSize=12;fontColor=default;strokeColor=default;fillColor=default;" parent="1" vertex="1">
          <mxGeometry x="952" y="1040" width="70" height="35" as="geometry" />
        </mxCell>
        <mxCell id="pV0WUz-UowrdmiYX6-GZ-79" value="" style="shape=singleArrow;whiteSpace=wrap;html=1;rounded=0;fontFamily=Helvetica;fontSize=12;fontColor=default;strokeColor=default;fillColor=default;" parent="1" vertex="1">
          <mxGeometry x="512" y="1006.25" width="90" height="12.5" as="geometry" />
        </mxCell>
        <mxCell id="pV0WUz-UowrdmiYX6-GZ-85" value="" style="endArrow=none;html=1;rounded=0;fontFamily=Helvetica;fontSize=12;fontColor=default;entryX=0;entryY=0.5;entryDx=0;entryDy=0;exitX=1;exitY=0.5;exitDx=0;exitDy=0;" parent="1" source="pV0WUz-UowrdmiYX6-GZ-74" target="pV0WUz-UowrdmiYX6-GZ-76" edge="1">
          <mxGeometry width="50" height="50" relative="1" as="geometry">
            <mxPoint x="672" y="1018.75" as="sourcePoint" />
            <mxPoint x="722" y="968.75" as="targetPoint" />
          </mxGeometry>
        </mxCell>
        <mxCell id="pV0WUz-UowrdmiYX6-GZ-86" value="out1 &amp;nbsp; &amp;nbsp; pipe1 &amp;nbsp;in1" style="text;html=1;strokeColor=none;fillColor=none;align=center;verticalAlign=middle;whiteSpace=wrap;rounded=0;fontFamily=Helvetica;fontSize=12;fontColor=default;" parent="1" vertex="1">
          <mxGeometry x="637" y="988.75" width="180" height="30" as="geometry" />
        </mxCell>
        <mxCell id="pV0WUz-UowrdmiYX6-GZ-87" value="" style="endArrow=none;dashed=1;html=1;dashPattern=1 3;strokeWidth=2;rounded=0;fontFamily=Helvetica;fontSize=12;fontColor=default;entryX=0.5;entryY=1;entryDx=0;entryDy=0;exitX=0.5;exitY=0;exitDx=0;exitDy=0;" parent="1" source="pV0WUz-UowrdmiYX6-GZ-77" target="pV0WUz-UowrdmiYX6-GZ-75" edge="1">
          <mxGeometry width="50" height="50" relative="1" as="geometry">
            <mxPoint x="892" y="1056.25" as="sourcePoint" />
            <mxPoint x="942" y="1006.25" as="targetPoint" />
          </mxGeometry>
        </mxCell>
        <mxCell id="pV0WUz-UowrdmiYX6-GZ-88" value="" style="endArrow=none;html=1;rounded=0;fontFamily=Helvetica;fontSize=12;fontColor=default;entryX=0;entryY=0.5;entryDx=0;entryDy=0;" parent="1" target="pV0WUz-UowrdmiYX6-GZ-75" edge="1">
          <mxGeometry width="50" height="50" relative="1" as="geometry">
            <mxPoint x="852" y="1010" as="sourcePoint" />
            <mxPoint x="902" y="960" as="targetPoint" />
          </mxGeometry>
        </mxCell>
        <mxCell id="pV0WUz-UowrdmiYX6-GZ-89" value="" style="endArrow=none;html=1;rounded=0;fontFamily=Helvetica;fontSize=12;fontColor=default;entryX=0;entryY=0.5;entryDx=0;entryDy=0;exitX=1;exitY=0.75;exitDx=0;exitDy=0;" parent="1" source="pV0WUz-UowrdmiYX6-GZ-76" target="pV0WUz-UowrdmiYX6-GZ-77" edge="1">
          <mxGeometry width="50" height="50" relative="1" as="geometry">
            <mxPoint x="862" y="1020" as="sourcePoint" />
            <mxPoint x="922" y="987.5" as="targetPoint" />
          </mxGeometry>
        </mxCell>
        <mxCell id="pV0WUz-UowrdmiYX6-GZ-90" value="out s" style="text;html=1;strokeColor=none;fillColor=none;align=center;verticalAlign=middle;whiteSpace=wrap;rounded=0;fontFamily=Helvetica;fontSize=12;fontColor=default;" parent="1" vertex="1">
          <mxGeometry x="832" y="976.25" width="60" height="30" as="geometry" />
        </mxCell>
        <mxCell id="pV0WUz-UowrdmiYX6-GZ-91" value="in s" style="text;html=1;strokeColor=none;fillColor=none;align=center;verticalAlign=middle;whiteSpace=wrap;rounded=0;fontFamily=Helvetica;fontSize=12;fontColor=default;" parent="1" vertex="1">
          <mxGeometry x="912" y="953.75" width="60" height="30" as="geometry" />
        </mxCell>
        <mxCell id="pV0WUz-UowrdmiYX6-GZ-92" value="in t" style="text;html=1;strokeColor=none;fillColor=none;align=center;verticalAlign=middle;whiteSpace=wrap;rounded=0;fontFamily=Helvetica;fontSize=12;fontColor=default;" parent="1" vertex="1">
          <mxGeometry x="912" y="1045" width="60" height="30" as="geometry" />
        </mxCell>
        <mxCell id="pV0WUz-UowrdmiYX6-GZ-93" value="pipe s" style="text;html=1;strokeColor=none;fillColor=none;align=center;verticalAlign=middle;whiteSpace=wrap;rounded=0;fontFamily=Helvetica;fontSize=12;fontColor=default;" parent="1" vertex="1">
          <mxGeometry x="872" y="965" width="60" height="30" as="geometry" />
        </mxCell>
        <mxCell id="pV0WUz-UowrdmiYX6-GZ-94" value="pipe t" style="text;html=1;strokeColor=none;fillColor=none;align=center;verticalAlign=middle;whiteSpace=wrap;rounded=0;fontFamily=Helvetica;fontSize=12;fontColor=default;" parent="1" vertex="1">
          <mxGeometry x="872" y="1040" width="60" height="30" as="geometry" />
        </mxCell>
        <mxCell id="pV0WUz-UowrdmiYX6-GZ-96" value="Functor n" style="rounded=1;whiteSpace=wrap;html=1;fontFamily=Helvetica;fontSize=12;fontColor=default;strokeColor=default;fillColor=default;" parent="1" vertex="1">
          <mxGeometry x="1076" y="997.5" width="70" height="35" as="geometry" />
        </mxCell>
        <mxCell id="pV0WUz-UowrdmiYX6-GZ-97" value="" style="endArrow=none;dashed=1;html=1;dashPattern=1 3;strokeWidth=2;rounded=0;fontFamily=Helvetica;fontSize=12;fontColor=default;" parent="1" target="pV0WUz-UowrdmiYX6-GZ-96" edge="1">
          <mxGeometry width="50" height="50" relative="1" as="geometry">
            <mxPoint x="1027" y="980" as="sourcePoint" />
            <mxPoint x="1077" y="930" as="targetPoint" />
          </mxGeometry>
        </mxCell>
        <mxCell id="pV0WUz-UowrdmiYX6-GZ-98" value="" style="endArrow=none;dashed=1;html=1;dashPattern=1 3;strokeWidth=2;rounded=0;fontFamily=Helvetica;fontSize=12;fontColor=default;entryX=0;entryY=1;entryDx=0;entryDy=0;exitX=1;exitY=0.5;exitDx=0;exitDy=0;" parent="1" source="pV0WUz-UowrdmiYX6-GZ-77" target="pV0WUz-UowrdmiYX6-GZ-96" edge="1">
          <mxGeometry width="50" height="50" relative="1" as="geometry">
            <mxPoint x="1027" y="1070" as="sourcePoint" />
            <mxPoint x="1077" y="1095" as="targetPoint" />
          </mxGeometry>
        </mxCell>
        <mxCell id="pV0WUz-UowrdmiYX6-GZ-99" value="" style="shape=singleArrow;whiteSpace=wrap;html=1;rounded=0;fontFamily=Helvetica;fontSize=12;fontColor=default;strokeColor=default;fillColor=default;" parent="1" vertex="1">
          <mxGeometry x="512" y="1006.25" width="90" height="12.5" as="geometry" />
        </mxCell>
        <mxCell id="pV0WUz-UowrdmiYX6-GZ-100" value="" style="shape=singleArrow;whiteSpace=wrap;html=1;rounded=0;fontFamily=Helvetica;fontSize=12;fontColor=default;strokeColor=default;fillColor=default;" parent="1" vertex="1">
          <mxGeometry x="1146" y="1006.25" width="90" height="12.5" as="geometry" />
        </mxCell>
        <mxCell id="pV0WUz-UowrdmiYX6-GZ-102" value="DVD" style="shape=cylinder3;whiteSpace=wrap;html=1;boundedLbl=1;backgroundOutline=1;size=15;rounded=0;fontFamily=Helvetica;fontSize=12;fontColor=default;strokeColor=default;fillColor=default;" parent="1" vertex="1">
          <mxGeometry x="1223.5" y="1220" width="60" height="80" as="geometry" />
        </mxCell>
        <mxCell id="pV0WUz-UowrdmiYX6-GZ-103" value="&lt;span style=&quot;color: rgb(0 , 0 , 0) ; font-family: &amp;#34;helvetica&amp;#34; ; font-size: 12px ; font-style: normal ; font-weight: normal ; letter-spacing: normal ; text-align: center ; text-indent: 0px ; text-transform: none ; word-spacing: 0px ; background-color: rgb(248 , 249 , 250) ; text-decoration: none ; display: inline ; float: none&quot;&gt;out t&lt;/span&gt;" style="rounded=1;whiteSpace=wrap;html=1;" parent="1" vertex="1">
          <mxGeometry x="523.5" y="1190" width="650" height="140" as="geometry" />
        </mxCell>
        <mxCell id="pV0WUz-UowrdmiYX6-GZ-104" value="pipelineArchiveJob(DVD)" style="text;html=1;strokeColor=none;fillColor=none;align=center;verticalAlign=middle;whiteSpace=wrap;rounded=0;fontFamily=Helvetica;fontSize=12;fontColor=default;" parent="1" vertex="1">
          <mxGeometry x="629.5" y="1192.5" width="60" height="30" as="geometry" />
        </mxCell>
        <mxCell id="pV0WUz-UowrdmiYX6-GZ-105" value="Functor 1" style="rounded=1;whiteSpace=wrap;html=1;fontFamily=Helvetica;fontSize=12;fontColor=default;strokeColor=default;fillColor=default;" parent="1" vertex="1">
          <mxGeometry x="589.5" y="1237.5" width="70" height="35" as="geometry" />
        </mxCell>
        <mxCell id="pV0WUz-UowrdmiYX6-GZ-106" value="Functor 1" style="rounded=1;whiteSpace=wrap;html=1;fontFamily=Helvetica;fontSize=12;fontColor=default;strokeColor=default;fillColor=default;" parent="1" vertex="1">
          <mxGeometry x="589.5" y="1237.5" width="70" height="35" as="geometry" />
        </mxCell>
        <mxCell id="pV0WUz-UowrdmiYX6-GZ-107" value="Functor m" style="rounded=1;whiteSpace=wrap;html=1;fontFamily=Helvetica;fontSize=12;fontColor=default;strokeColor=default;fillColor=default;" parent="1" vertex="1">
          <mxGeometry x="939.5" y="1196.25" width="70" height="35" as="geometry" />
        </mxCell>
        <mxCell id="pV0WUz-UowrdmiYX6-GZ-108" value="Functor 2" style="rounded=1;whiteSpace=wrap;html=1;fontFamily=Helvetica;fontSize=12;fontColor=default;strokeColor=default;fillColor=default;" parent="1" vertex="1">
          <mxGeometry x="769.5" y="1237.5" width="70" height="35" as="geometry" />
        </mxCell>
        <mxCell id="pV0WUz-UowrdmiYX6-GZ-109" value="Functor &amp;nbsp;k" style="rounded=1;whiteSpace=wrap;html=1;fontFamily=Helvetica;fontSize=12;fontColor=default;strokeColor=default;fillColor=default;" parent="1" vertex="1">
          <mxGeometry x="939.5" y="1282.5" width="70" height="35" as="geometry" />
        </mxCell>
        <mxCell id="pV0WUz-UowrdmiYX6-GZ-110" value="" style="shape=singleArrow;whiteSpace=wrap;html=1;rounded=0;fontFamily=Helvetica;fontSize=12;fontColor=default;strokeColor=default;fillColor=default;" parent="1" vertex="1">
          <mxGeometry x="499.5" y="1248.75" width="90" height="12.5" as="geometry" />
        </mxCell>
        <mxCell id="pV0WUz-UowrdmiYX6-GZ-111" value="" style="endArrow=none;html=1;rounded=0;fontFamily=Helvetica;fontSize=12;fontColor=default;entryX=0;entryY=0.5;entryDx=0;entryDy=0;exitX=1;exitY=0.5;exitDx=0;exitDy=0;" parent="1" source="pV0WUz-UowrdmiYX6-GZ-106" target="pV0WUz-UowrdmiYX6-GZ-108" edge="1">
          <mxGeometry width="50" height="50" relative="1" as="geometry">
            <mxPoint x="659.5" y="1261.25" as="sourcePoint" />
            <mxPoint x="709.5" y="1211.25" as="targetPoint" />
          </mxGeometry>
        </mxCell>
        <mxCell id="pV0WUz-UowrdmiYX6-GZ-112" value="out1 &amp;nbsp; &amp;nbsp; pipe1 &amp;nbsp;in1" style="text;html=1;strokeColor=none;fillColor=none;align=center;verticalAlign=middle;whiteSpace=wrap;rounded=0;fontFamily=Helvetica;fontSize=12;fontColor=default;" parent="1" vertex="1">
          <mxGeometry x="624.5" y="1231.25" width="180" height="30" as="geometry" />
        </mxCell>
        <mxCell id="pV0WUz-UowrdmiYX6-GZ-113" value="" style="endArrow=none;dashed=1;html=1;dashPattern=1 3;strokeWidth=2;rounded=0;fontFamily=Helvetica;fontSize=12;fontColor=default;entryX=0.5;entryY=1;entryDx=0;entryDy=0;exitX=0.5;exitY=0;exitDx=0;exitDy=0;" parent="1" source="pV0WUz-UowrdmiYX6-GZ-109" target="pV0WUz-UowrdmiYX6-GZ-107" edge="1">
          <mxGeometry width="50" height="50" relative="1" as="geometry">
            <mxPoint x="879.5" y="1298.75" as="sourcePoint" />
            <mxPoint x="929.5" y="1248.75" as="targetPoint" />
          </mxGeometry>
        </mxCell>
        <mxCell id="pV0WUz-UowrdmiYX6-GZ-114" value="" style="endArrow=none;html=1;rounded=0;fontFamily=Helvetica;fontSize=12;fontColor=default;entryX=0;entryY=0.5;entryDx=0;entryDy=0;" parent="1" target="pV0WUz-UowrdmiYX6-GZ-107" edge="1">
          <mxGeometry width="50" height="50" relative="1" as="geometry">
            <mxPoint x="839.5" y="1252.5" as="sourcePoint" />
            <mxPoint x="889.5" y="1202.5" as="targetPoint" />
          </mxGeometry>
        </mxCell>
        <mxCell id="pV0WUz-UowrdmiYX6-GZ-115" value="" style="endArrow=none;html=1;rounded=0;fontFamily=Helvetica;fontSize=12;fontColor=default;entryX=0;entryY=0.5;entryDx=0;entryDy=0;exitX=1;exitY=0.75;exitDx=0;exitDy=0;" parent="1" source="pV0WUz-UowrdmiYX6-GZ-108" target="pV0WUz-UowrdmiYX6-GZ-109" edge="1">
          <mxGeometry width="50" height="50" relative="1" as="geometry">
            <mxPoint x="849.5" y="1262.5" as="sourcePoint" />
            <mxPoint x="909.5" y="1230" as="targetPoint" />
          </mxGeometry>
        </mxCell>
        <mxCell id="pV0WUz-UowrdmiYX6-GZ-116" value="out s" style="text;html=1;strokeColor=none;fillColor=none;align=center;verticalAlign=middle;whiteSpace=wrap;rounded=0;fontFamily=Helvetica;fontSize=12;fontColor=default;" parent="1" vertex="1">
          <mxGeometry x="819.5" y="1218.75" width="60" height="30" as="geometry" />
        </mxCell>
        <mxCell id="pV0WUz-UowrdmiYX6-GZ-117" value="in s" style="text;html=1;strokeColor=none;fillColor=none;align=center;verticalAlign=middle;whiteSpace=wrap;rounded=0;fontFamily=Helvetica;fontSize=12;fontColor=default;" parent="1" vertex="1">
          <mxGeometry x="894.5" y="1196.25" width="60" height="30" as="geometry" />
        </mxCell>
        <mxCell id="pV0WUz-UowrdmiYX6-GZ-118" value="in t" style="text;html=1;strokeColor=none;fillColor=none;align=center;verticalAlign=middle;whiteSpace=wrap;rounded=0;fontFamily=Helvetica;fontSize=12;fontColor=default;" parent="1" vertex="1">
          <mxGeometry x="894.5" y="1287.5" width="60" height="30" as="geometry" />
        </mxCell>
        <mxCell id="pV0WUz-UowrdmiYX6-GZ-119" value="pipe s" style="text;html=1;strokeColor=none;fillColor=none;align=center;verticalAlign=middle;whiteSpace=wrap;rounded=0;fontFamily=Helvetica;fontSize=12;fontColor=default;" parent="1" vertex="1">
          <mxGeometry x="859.5" y="1207.5" width="60" height="30" as="geometry" />
        </mxCell>
        <mxCell id="pV0WUz-UowrdmiYX6-GZ-120" value="pipe t" style="text;html=1;strokeColor=none;fillColor=none;align=center;verticalAlign=middle;whiteSpace=wrap;rounded=0;fontFamily=Helvetica;fontSize=12;fontColor=default;" parent="1" vertex="1">
          <mxGeometry x="854.5" y="1275" width="60" height="30" as="geometry" />
        </mxCell>
        <mxCell id="pV0WUz-UowrdmiYX6-GZ-121" value="Functor n" style="rounded=1;whiteSpace=wrap;html=1;fontFamily=Helvetica;fontSize=12;fontColor=default;strokeColor=default;fillColor=default;" parent="1" vertex="1">
          <mxGeometry x="1063.5" y="1240" width="70" height="35" as="geometry" />
        </mxCell>
        <mxCell id="pV0WUz-UowrdmiYX6-GZ-122" value="" style="endArrow=none;dashed=1;html=1;dashPattern=1 3;strokeWidth=2;rounded=0;fontFamily=Helvetica;fontSize=12;fontColor=default;" parent="1" target="pV0WUz-UowrdmiYX6-GZ-121" edge="1">
          <mxGeometry width="50" height="50" relative="1" as="geometry">
            <mxPoint x="1014.5" y="1222.5" as="sourcePoint" />
            <mxPoint x="1064.5" y="1172.5" as="targetPoint" />
          </mxGeometry>
        </mxCell>
        <mxCell id="pV0WUz-UowrdmiYX6-GZ-123" value="" style="endArrow=none;dashed=1;html=1;dashPattern=1 3;strokeWidth=2;rounded=0;fontFamily=Helvetica;fontSize=12;fontColor=default;entryX=0;entryY=1;entryDx=0;entryDy=0;exitX=1;exitY=0.5;exitDx=0;exitDy=0;" parent="1" source="pV0WUz-UowrdmiYX6-GZ-109" target="pV0WUz-UowrdmiYX6-GZ-121" edge="1">
          <mxGeometry width="50" height="50" relative="1" as="geometry">
            <mxPoint x="1014.5" y="1312.5" as="sourcePoint" />
            <mxPoint x="1064.5" y="1337.5" as="targetPoint" />
          </mxGeometry>
        </mxCell>
        <mxCell id="pV0WUz-UowrdmiYX6-GZ-124" value="" style="shape=singleArrow;whiteSpace=wrap;html=1;rounded=0;fontFamily=Helvetica;fontSize=12;fontColor=default;strokeColor=default;fillColor=default;" parent="1" vertex="1">
          <mxGeometry x="499.5" y="1248.75" width="90" height="12.5" as="geometry" />
        </mxCell>
        <mxCell id="pV0WUz-UowrdmiYX6-GZ-125" value="" style="shape=singleArrow;whiteSpace=wrap;html=1;rounded=0;fontFamily=Helvetica;fontSize=12;fontColor=default;strokeColor=default;fillColor=default;" parent="1" vertex="1">
          <mxGeometry x="1133.5" y="1248.75" width="90" height="12.5" as="geometry" />
        </mxCell>
        <mxCell id="pV0WUz-UowrdmiYX6-GZ-126" value="&lt;span style=&quot;color: rgb(0 , 0 , 0) ; font-family: &amp;#34;helvetica&amp;#34; ; font-size: 12px ; font-style: normal ; font-weight: normal ; letter-spacing: normal ; text-align: center ; text-indent: 0px ; text-transform: none ; word-spacing: 0px ; background-color: rgb(248 , 249 , 250) ; text-decoration: none ; display: inline ; float: none&quot;&gt;out t&lt;/span&gt;" style="rounded=1;whiteSpace=wrap;html=1;" parent="1" vertex="1">
          <mxGeometry x="528.5" y="1450" width="650" height="137.5" as="geometry" />
        </mxCell>
        <mxCell id="pV0WUz-UowrdmiYX6-GZ-127" value="pipelineArchiveJob(USB)" style="text;html=1;strokeColor=none;fillColor=none;align=center;verticalAlign=middle;whiteSpace=wrap;rounded=0;fontFamily=Helvetica;fontSize=12;fontColor=default;" parent="1" vertex="1">
          <mxGeometry x="633.5" y="1450" width="60" height="30" as="geometry" />
        </mxCell>
        <mxCell id="pV0WUz-UowrdmiYX6-GZ-128" value="Functor 1" style="rounded=1;whiteSpace=wrap;html=1;fontFamily=Helvetica;fontSize=12;fontColor=default;strokeColor=default;fillColor=default;" parent="1" vertex="1">
          <mxGeometry x="593.5" y="1495" width="70" height="35" as="geometry" />
        </mxCell>
        <mxCell id="pV0WUz-UowrdmiYX6-GZ-129" value="Functor 1" style="rounded=1;whiteSpace=wrap;html=1;fontFamily=Helvetica;fontSize=12;fontColor=default;strokeColor=default;fillColor=default;" parent="1" vertex="1">
          <mxGeometry x="593.5" y="1495" width="70" height="35" as="geometry" />
        </mxCell>
        <mxCell id="pV0WUz-UowrdmiYX6-GZ-130" value="Functor m" style="rounded=1;whiteSpace=wrap;html=1;fontFamily=Helvetica;fontSize=12;fontColor=default;strokeColor=default;fillColor=default;" parent="1" vertex="1">
          <mxGeometry x="943.5" y="1453.75" width="70" height="35" as="geometry" />
        </mxCell>
        <mxCell id="pV0WUz-UowrdmiYX6-GZ-131" value="Functor 2" style="rounded=1;whiteSpace=wrap;html=1;fontFamily=Helvetica;fontSize=12;fontColor=default;strokeColor=default;fillColor=default;" parent="1" vertex="1">
          <mxGeometry x="773.5" y="1495" width="70" height="35" as="geometry" />
        </mxCell>
        <mxCell id="pV0WUz-UowrdmiYX6-GZ-132" value="Functor &amp;nbsp;k" style="rounded=1;whiteSpace=wrap;html=1;fontFamily=Helvetica;fontSize=12;fontColor=default;strokeColor=default;fillColor=default;" parent="1" vertex="1">
          <mxGeometry x="943.5" y="1540" width="70" height="35" as="geometry" />
        </mxCell>
        <mxCell id="pV0WUz-UowrdmiYX6-GZ-133" value="" style="shape=singleArrow;whiteSpace=wrap;html=1;rounded=0;fontFamily=Helvetica;fontSize=12;fontColor=default;strokeColor=default;fillColor=default;" parent="1" vertex="1">
          <mxGeometry x="503.5" y="1506.25" width="90" height="12.5" as="geometry" />
        </mxCell>
        <mxCell id="pV0WUz-UowrdmiYX6-GZ-134" value="" style="endArrow=none;html=1;rounded=0;fontFamily=Helvetica;fontSize=12;fontColor=default;entryX=0;entryY=0.5;entryDx=0;entryDy=0;exitX=1;exitY=0.5;exitDx=0;exitDy=0;" parent="1" source="pV0WUz-UowrdmiYX6-GZ-129" target="pV0WUz-UowrdmiYX6-GZ-131" edge="1">
          <mxGeometry width="50" height="50" relative="1" as="geometry">
            <mxPoint x="663.5" y="1518.75" as="sourcePoint" />
            <mxPoint x="713.5" y="1468.75" as="targetPoint" />
          </mxGeometry>
        </mxCell>
        <mxCell id="pV0WUz-UowrdmiYX6-GZ-135" value="out1 &amp;nbsp; &amp;nbsp; pipe1 &amp;nbsp;in1" style="text;html=1;strokeColor=none;fillColor=none;align=center;verticalAlign=middle;whiteSpace=wrap;rounded=0;fontFamily=Helvetica;fontSize=12;fontColor=default;" parent="1" vertex="1">
          <mxGeometry x="628.5" y="1488.75" width="180" height="30" as="geometry" />
        </mxCell>
        <mxCell id="pV0WUz-UowrdmiYX6-GZ-136" value="" style="endArrow=none;dashed=1;html=1;dashPattern=1 3;strokeWidth=2;rounded=0;fontFamily=Helvetica;fontSize=12;fontColor=default;entryX=0.5;entryY=1;entryDx=0;entryDy=0;exitX=0.5;exitY=0;exitDx=0;exitDy=0;" parent="1" source="pV0WUz-UowrdmiYX6-GZ-132" target="pV0WUz-UowrdmiYX6-GZ-130" edge="1">
          <mxGeometry width="50" height="50" relative="1" as="geometry">
            <mxPoint x="883.5" y="1556.25" as="sourcePoint" />
            <mxPoint x="933.5" y="1506.25" as="targetPoint" />
          </mxGeometry>
        </mxCell>
        <mxCell id="pV0WUz-UowrdmiYX6-GZ-137" value="" style="endArrow=none;html=1;rounded=0;fontFamily=Helvetica;fontSize=12;fontColor=default;entryX=0;entryY=0.5;entryDx=0;entryDy=0;" parent="1" target="pV0WUz-UowrdmiYX6-GZ-130" edge="1">
          <mxGeometry width="50" height="50" relative="1" as="geometry">
            <mxPoint x="843.5" y="1510" as="sourcePoint" />
            <mxPoint x="893.5" y="1460" as="targetPoint" />
          </mxGeometry>
        </mxCell>
        <mxCell id="pV0WUz-UowrdmiYX6-GZ-138" value="" style="endArrow=none;html=1;rounded=0;fontFamily=Helvetica;fontSize=12;fontColor=default;entryX=0;entryY=0.5;entryDx=0;entryDy=0;exitX=1;exitY=0.75;exitDx=0;exitDy=0;" parent="1" source="pV0WUz-UowrdmiYX6-GZ-131" target="pV0WUz-UowrdmiYX6-GZ-132" edge="1">
          <mxGeometry width="50" height="50" relative="1" as="geometry">
            <mxPoint x="853.5" y="1520" as="sourcePoint" />
            <mxPoint x="913.5" y="1487.5" as="targetPoint" />
          </mxGeometry>
        </mxCell>
        <mxCell id="pV0WUz-UowrdmiYX6-GZ-139" value="out s" style="text;html=1;strokeColor=none;fillColor=none;align=center;verticalAlign=middle;whiteSpace=wrap;rounded=0;fontFamily=Helvetica;fontSize=12;fontColor=default;" parent="1" vertex="1">
          <mxGeometry x="823.5" y="1476.25" width="60" height="30" as="geometry" />
        </mxCell>
        <mxCell id="pV0WUz-UowrdmiYX6-GZ-140" value="in s" style="text;html=1;strokeColor=none;fillColor=none;align=center;verticalAlign=middle;whiteSpace=wrap;rounded=0;fontFamily=Helvetica;fontSize=12;fontColor=default;" parent="1" vertex="1">
          <mxGeometry x="897.5" y="1453.75" width="60" height="30" as="geometry" />
        </mxCell>
        <mxCell id="pV0WUz-UowrdmiYX6-GZ-141" value="in t" style="text;html=1;strokeColor=none;fillColor=none;align=center;verticalAlign=middle;whiteSpace=wrap;rounded=0;fontFamily=Helvetica;fontSize=12;fontColor=default;" parent="1" vertex="1">
          <mxGeometry x="897.5" y="1545" width="60" height="30" as="geometry" />
        </mxCell>
        <mxCell id="pV0WUz-UowrdmiYX6-GZ-142" value="pipe s" style="text;html=1;strokeColor=none;fillColor=none;align=center;verticalAlign=middle;whiteSpace=wrap;rounded=0;fontFamily=Helvetica;fontSize=12;fontColor=default;" parent="1" vertex="1">
          <mxGeometry x="863.5" y="1465" width="60" height="30" as="geometry" />
        </mxCell>
        <mxCell id="pV0WUz-UowrdmiYX6-GZ-143" value="pipe t" style="text;html=1;strokeColor=none;fillColor=none;align=center;verticalAlign=middle;whiteSpace=wrap;rounded=0;fontFamily=Helvetica;fontSize=12;fontColor=default;" parent="1" vertex="1">
          <mxGeometry x="863.5" y="1536.5" width="60" height="30" as="geometry" />
        </mxCell>
        <mxCell id="pV0WUz-UowrdmiYX6-GZ-144" value="Functor n" style="rounded=1;whiteSpace=wrap;html=1;fontFamily=Helvetica;fontSize=12;fontColor=default;strokeColor=default;fillColor=default;" parent="1" vertex="1">
          <mxGeometry x="1067.5" y="1497.5" width="70" height="35" as="geometry" />
        </mxCell>
        <mxCell id="pV0WUz-UowrdmiYX6-GZ-145" value="" style="endArrow=none;dashed=1;html=1;dashPattern=1 3;strokeWidth=2;rounded=0;fontFamily=Helvetica;fontSize=12;fontColor=default;" parent="1" target="pV0WUz-UowrdmiYX6-GZ-144" edge="1">
          <mxGeometry width="50" height="50" relative="1" as="geometry">
            <mxPoint x="1018.5" y="1480" as="sourcePoint" />
            <mxPoint x="1068.5" y="1430" as="targetPoint" />
          </mxGeometry>
        </mxCell>
        <mxCell id="pV0WUz-UowrdmiYX6-GZ-146" value="" style="endArrow=none;dashed=1;html=1;dashPattern=1 3;strokeWidth=2;rounded=0;fontFamily=Helvetica;fontSize=12;fontColor=default;entryX=0;entryY=1;entryDx=0;entryDy=0;exitX=1;exitY=0.5;exitDx=0;exitDy=0;" parent="1" source="pV0WUz-UowrdmiYX6-GZ-132" target="pV0WUz-UowrdmiYX6-GZ-144" edge="1">
          <mxGeometry width="50" height="50" relative="1" as="geometry">
            <mxPoint x="1018.5" y="1570" as="sourcePoint" />
            <mxPoint x="1068.5" y="1595" as="targetPoint" />
          </mxGeometry>
        </mxCell>
        <mxCell id="pV0WUz-UowrdmiYX6-GZ-147" value="" style="shape=singleArrow;whiteSpace=wrap;html=1;rounded=0;fontFamily=Helvetica;fontSize=12;fontColor=default;strokeColor=default;fillColor=default;" parent="1" vertex="1">
          <mxGeometry x="503.5" y="1506.25" width="90" height="12.5" as="geometry" />
        </mxCell>
        <mxCell id="pV0WUz-UowrdmiYX6-GZ-148" value="" style="shape=singleArrow;whiteSpace=wrap;html=1;rounded=0;fontFamily=Helvetica;fontSize=12;fontColor=default;strokeColor=default;fillColor=default;" parent="1" vertex="1">
          <mxGeometry x="1137.5" y="1506.25" width="90" height="12.5" as="geometry" />
        </mxCell>
        <mxCell id="pV0WUz-UowrdmiYX6-GZ-154" style="edgeStyle=orthogonalEdgeStyle;rounded=0;orthogonalLoop=1;jettySize=auto;html=1;exitX=0.5;exitY=1;exitDx=0;exitDy=0;fontFamily=Helvetica;fontSize=12;fontColor=default;" parent="1" source="pV0WUz-UowrdmiYX6-GZ-103" target="pV0WUz-UowrdmiYX6-GZ-103" edge="1">
          <mxGeometry relative="1" as="geometry" />
        </mxCell>
        <mxCell id="pV0WUz-UowrdmiYX6-GZ-155" style="edgeStyle=orthogonalEdgeStyle;rounded=0;orthogonalLoop=1;jettySize=auto;html=1;exitX=0.5;exitY=1;exitDx=0;exitDy=0;fontFamily=Helvetica;fontSize=12;fontColor=default;" parent="1" source="pV0WUz-UowrdmiYX6-GZ-70" target="pV0WUz-UowrdmiYX6-GZ-70" edge="1">
          <mxGeometry relative="1" as="geometry" />
        </mxCell>
        <mxCell id="pV0WUz-UowrdmiYX6-GZ-175" style="edgeStyle=orthogonalEdgeStyle;rounded=0;orthogonalLoop=1;jettySize=auto;html=1;exitX=0.5;exitY=1;exitDx=0;exitDy=0;fontFamily=Helvetica;fontSize=12;fontColor=default;" parent="1" edge="1">
          <mxGeometry relative="1" as="geometry">
            <mxPoint x="402" y="725" as="sourcePoint" />
            <mxPoint x="402" y="725" as="targetPoint" />
          </mxGeometry>
        </mxCell>
        <mxCell id="pV0WUz-UowrdmiYX6-GZ-188" value="DataBase" style="shape=cylinder3;whiteSpace=wrap;html=1;boundedLbl=1;backgroundOutline=1;size=15;rounded=0;fontFamily=Helvetica;fontSize=12;fontColor=default;strokeColor=default;fillColor=default;" parent="1" vertex="1">
          <mxGeometry x="437.5" y="1220" width="60" height="80" as="geometry" />
        </mxCell>
        <mxCell id="pV0WUz-UowrdmiYX6-GZ-189" value="DataBase" style="shape=cylinder3;whiteSpace=wrap;html=1;boundedLbl=1;backgroundOutline=1;size=15;rounded=0;fontFamily=Helvetica;fontSize=12;fontColor=default;strokeColor=default;fillColor=default;" parent="1" vertex="1">
          <mxGeometry x="437.5" y="1220" width="60" height="80" as="geometry" />
        </mxCell>
        <mxCell id="pV0WUz-UowrdmiYX6-GZ-190" value="DataBase" style="shape=cylinder3;whiteSpace=wrap;html=1;boundedLbl=1;backgroundOutline=1;size=15;rounded=0;fontFamily=Helvetica;fontSize=12;fontColor=default;strokeColor=default;fillColor=default;" parent="1" vertex="1">
          <mxGeometry x="441.5" y="1472.5" width="60" height="80" as="geometry" />
        </mxCell>
        <mxCell id="pV0WUz-UowrdmiYX6-GZ-191" value="" style="endArrow=none;dashed=1;html=1;dashPattern=1 3;strokeWidth=2;rounded=0;fontFamily=Helvetica;fontSize=12;fontColor=default;" parent="1" edge="1">
          <mxGeometry width="50" height="50" relative="1" as="geometry">
            <mxPoint x="1297.5" y="1260.25" as="sourcePoint" />
            <mxPoint x="1341.5" y="1261" as="targetPoint" />
          </mxGeometry>
        </mxCell>
        <mxCell id="pV0WUz-UowrdmiYX6-GZ-192" value="DVD" style="shape=cylinder3;whiteSpace=wrap;html=1;boundedLbl=1;backgroundOutline=1;size=15;rounded=0;fontFamily=Helvetica;fontSize=12;fontColor=default;strokeColor=default;fillColor=default;" parent="1" vertex="1">
          <mxGeometry x="1347.5" y="1220" width="60" height="80" as="geometry" />
        </mxCell>
        <mxCell id="pV0WUz-UowrdmiYX6-GZ-193" value="USB" style="shape=cylinder3;whiteSpace=wrap;html=1;boundedLbl=1;backgroundOutline=1;size=15;rounded=0;fontFamily=Helvetica;fontSize=12;fontColor=default;strokeColor=default;fillColor=default;" parent="1" vertex="1">
          <mxGeometry x="1227.5" y="1472.5" width="60" height="80" as="geometry" />
        </mxCell>
        <mxCell id="pV0WUz-UowrdmiYX6-GZ-194" value="" style="endArrow=none;dashed=1;html=1;dashPattern=1 3;strokeWidth=2;rounded=0;fontFamily=Helvetica;fontSize=12;fontColor=default;" parent="1" edge="1">
          <mxGeometry width="50" height="50" relative="1" as="geometry">
            <mxPoint x="1293.5" y="1512.75" as="sourcePoint" />
            <mxPoint x="1337.5" y="1513.5" as="targetPoint" />
          </mxGeometry>
        </mxCell>
        <mxCell id="pV0WUz-UowrdmiYX6-GZ-195" value="USB" style="shape=cylinder3;whiteSpace=wrap;html=1;boundedLbl=1;backgroundOutline=1;size=15;rounded=0;fontFamily=Helvetica;fontSize=12;fontColor=default;strokeColor=default;fillColor=default;" parent="1" vertex="1">
          <mxGeometry x="1343.5" y="1472.5" width="60" height="80" as="geometry" />
        </mxCell>
        <mxCell id="pV0WUz-UowrdmiYX6-GZ-196" value="DataBase" style="shape=cylinder3;whiteSpace=wrap;html=1;boundedLbl=1;backgroundOutline=1;size=15;rounded=0;fontFamily=Helvetica;fontSize=12;fontColor=default;strokeColor=default;fillColor=default;" parent="1" vertex="1">
          <mxGeometry x="450" y="972.5" width="60" height="80" as="geometry" />
        </mxCell>
        <mxCell id="pV0WUz-UowrdmiYX6-GZ-197" value="PACS" style="whiteSpace=wrap;html=1;aspect=fixed;rounded=0;fontFamily=Helvetica;fontSize=12;fontColor=default;strokeColor=default;fillColor=default;" parent="1" vertex="1">
          <mxGeometry x="1240" y="972.5" width="80" height="80" as="geometry" />
        </mxCell>
        <mxCell id="pV0WUz-UowrdmiYX6-GZ-226" value="" style="endArrow=classic;html=1;rounded=0;fontFamily=Helvetica;fontSize=12;fontColor=default;exitX=0.75;exitY=1;exitDx=0;exitDy=0;entryX=0.25;entryY=0;entryDx=0;entryDy=0;" parent="1" source="pV0WUz-UowrdmiYX6-GZ-5" target="pV0WUz-UowrdmiYX6-GZ-13" edge="1">
          <mxGeometry width="50" height="50" relative="1" as="geometry">
            <mxPoint x="835" y="480" as="sourcePoint" />
            <mxPoint x="985" y="350" as="targetPoint" />
          </mxGeometry>
        </mxCell>
        <mxCell id="pV0WUz-UowrdmiYX6-GZ-227" value="" style="endArrow=classic;html=1;rounded=0;fontFamily=Helvetica;fontSize=12;fontColor=default;entryX=1;entryY=0.5;entryDx=0;entryDy=0;exitX=0;exitY=0.5;exitDx=0;exitDy=0;" parent="1" source="pV0WUz-UowrdmiYX6-GZ-13" target="pV0WUz-UowrdmiYX6-GZ-2" edge="1">
          <mxGeometry width="50" height="50" relative="1" as="geometry">
            <mxPoint x="980" y="340" as="sourcePoint" />
            <mxPoint x="885" y="430" as="targetPoint" />
          </mxGeometry>
        </mxCell>
        <mxCell id="pV0WUz-UowrdmiYX6-GZ-228" value="PACS &amp;nbsp;" style="rounded=0;whiteSpace=wrap;html=1;" parent="1" vertex="1">
          <mxGeometry x="1613" y="310" width="140" height="60" as="geometry" />
        </mxCell>
        <mxCell id="pV0WUz-UowrdmiYX6-GZ-229" value="后端归档服务提供进程&lt;br&gt;DICOMServer&lt;br&gt;TLS DICOMServer" style="rounded=0;whiteSpace=wrap;html=1;" parent="1" vertex="1">
          <mxGeometry x="1251" y="310" width="140" height="60" as="geometry" />
        </mxCell>
        <mxCell id="pV0WUz-UowrdmiYX6-GZ-231" value="&lt;span style=&quot;font-size: 12pt&quot;&gt;联影通用软件平台&lt;/span&gt;&lt;span style=&quot;font-size: medium&quot;&gt;&lt;/span&gt;" style="text;html=1;strokeColor=none;fillColor=none;align=center;verticalAlign=middle;whiteSpace=wrap;rounded=0;fontFamily=Helvetica;fontSize=12;fontColor=default;" parent="1" vertex="1">
          <mxGeometry x="500" y="110" width="130" height="30" as="geometry" />
        </mxCell>
        <mxCell id="pV0WUz-UowrdmiYX6-GZ-233" value="" style="endArrow=classic;html=1;rounded=0;fontFamily=Helvetica;fontSize=12;fontColor=default;exitX=0;exitY=0.25;exitDx=0;exitDy=0;" parent="1" source="pV0WUz-UowrdmiYX6-GZ-228" edge="1">
          <mxGeometry width="50" height="50" relative="1" as="geometry">
            <mxPoint x="1060" y="430" as="sourcePoint" />
            <mxPoint x="1390" y="325" as="targetPoint" />
          </mxGeometry>
        </mxCell>
        <mxCell id="pV0WUz-UowrdmiYX6-GZ-236" value="响应C-Move触发归档" style="text;html=1;strokeColor=none;fillColor=none;align=center;verticalAlign=middle;whiteSpace=wrap;rounded=0;fontFamily=Helvetica;fontSize=12;fontColor=default;" parent="1" vertex="1">
          <mxGeometry x="1160" y="260" width="118" height="30" as="geometry" />
        </mxCell>
        <mxCell id="Bt5RXn0_dhiq7Tst1pNt-1" value="" style="endArrow=classic;html=1;rounded=0;exitX=0;exitY=0;exitDx=0;exitDy=0;" parent="1" source="pV0WUz-UowrdmiYX6-GZ-229" target="pV0WUz-UowrdmiYX6-GZ-5" edge="1">
          <mxGeometry width="50" height="50" relative="1" as="geometry">
            <mxPoint x="1251" y="305" as="sourcePoint" />
            <mxPoint x="1301" y="255" as="targetPoint" />
          </mxGeometry>
        </mxCell>
        <mxCell id="Bt5RXn0_dhiq7Tst1pNt-2" value="" style="endArrow=classic;html=1;rounded=0;entryX=0;entryY=0.75;entryDx=0;entryDy=0;exitX=1;exitY=0.75;exitDx=0;exitDy=0;" parent="1" source="pV0WUz-UowrdmiYX6-GZ-2" target="pV0WUz-UowrdmiYX6-GZ-13" edge="1">
          <mxGeometry width="50" height="50" relative="1" as="geometry">
            <mxPoint x="835" y="365" as="sourcePoint" />
            <mxPoint x="885" y="315" as="targetPoint" />
          </mxGeometry>
        </mxCell>
        <mxCell id="Bt5RXn0_dhiq7Tst1pNt-3" value="返回创建的JobId" style="text;html=1;strokeColor=none;fillColor=none;align=center;verticalAlign=middle;whiteSpace=wrap;rounded=0;" parent="1" vertex="1">
          <mxGeometry x="865" y="360" width="115" height="30" as="geometry" />
        </mxCell>
        <mxCell id="Bt5RXn0_dhiq7Tst1pNt-4" value="" style="endArrow=classic;html=1;rounded=0;entryX=0.443;entryY=-0.017;entryDx=0;entryDy=0;entryPerimeter=0;" parent="1" target="pV0WUz-UowrdmiYX6-GZ-51" edge="1">
          <mxGeometry width="50" height="50" relative="1" as="geometry">
            <mxPoint x="775" y="370" as="sourcePoint" />
            <mxPoint x="825" y="320" as="targetPoint" />
          </mxGeometry>
        </mxCell>
      </root>
    </mxGraphModel>
  </diagram>
</mxfile>
